<mxfile host="app.diagrams.net" agent="Mozilla/5.0 (X11; Linux x86_64; rv:138.0) Gecko/20100101 Firefox/138.0" version="27.1.5">
  <diagram name="Página-1" id="P2Bl6MgNGnCEYC6LOSJ-">
    <mxGraphModel grid="1" page="1" gridSize="10" guides="1" tooltips="1" connect="1" arrows="1" fold="1" pageScale="1" pageWidth="827" pageHeight="1169" math="0" shadow="0">
      <root>
        <mxCell id="0" />
        <mxCell id="1" parent="0" />
        <mxCell id="IdwpKhhIMxXqMESn43Ej-1" value="Usuário" style="shape=umlActor;verticalLabelPosition=bottom;verticalAlign=top;html=1;strokeWidth=2;fontStyle=1" vertex="1" parent="1">
          <mxGeometry x="80" y="175" width="30" height="60" as="geometry" />
        </mxCell>
        <mxCell id="IdwpKhhIMxXqMESn43Ej-4" value="Acessar Histórico de Compras" style="ellipse;whiteSpace=wrap;html=1;strokeWidth=2;fontStyle=1" vertex="1" parent="1">
          <mxGeometry x="290" y="175" width="140" height="70" as="geometry" />
        </mxCell>
        <mxCell id="IdwpKhhIMxXqMESn43Ej-6" value="" style="endArrow=none;html=1;rounded=0;entryX=0;entryY=0.5;entryDx=0;entryDy=0;strokeWidth=2;" edge="1" parent="1" target="IdwpKhhIMxXqMESn43Ej-4">
          <mxGeometry width="50" height="50" relative="1" as="geometry">
            <mxPoint x="110" y="210" as="sourcePoint" />
            <mxPoint x="430" y="220" as="targetPoint" />
            <Array as="points">
              <mxPoint x="200" y="210" />
            </Array>
          </mxGeometry>
        </mxCell>
        <mxCell id="IdwpKhhIMxXqMESn43Ej-22" value="Ver detalhes da compra" style="ellipse;whiteSpace=wrap;html=1;strokeWidth=2;fontStyle=1" vertex="1" parent="1">
          <mxGeometry x="290" y="310" width="120" height="70" as="geometry" />
        </mxCell>
        <mxCell id="IdwpKhhIMxXqMESn43Ej-23" value="" style="endArrow=open;html=1;rounded=0;dashed=1;exitX=0.625;exitY=0.738;exitDx=0;exitDy=0;exitPerimeter=0;endFill=0;strokeWidth=2;entryX=1;entryY=0.5;entryDx=0;entryDy=0;" edge="1" parent="1" target="IdwpKhhIMxXqMESn43Ej-22">
          <mxGeometry width="50" height="50" relative="1" as="geometry">
            <mxPoint x="530" y="339.96000000000004" as="sourcePoint" />
            <mxPoint x="429.9999033699943" y="340.0024758424986" as="targetPoint" />
          </mxGeometry>
        </mxCell>
        <mxCell id="IdwpKhhIMxXqMESn43Ej-24" value="&amp;lt;&amp;lt;extend&amp;gt;&amp;gt;" style="edgeLabel;html=1;align=center;verticalAlign=middle;resizable=0;points=[];fontStyle=1" vertex="1" connectable="0" parent="IdwpKhhIMxXqMESn43Ej-23">
          <mxGeometry x="-0.0909" relative="1" as="geometry">
            <mxPoint as="offset" />
          </mxGeometry>
        </mxCell>
        <mxCell id="IdwpKhhIMxXqMESn43Ej-25" value="Baixar comprovante de compra" style="ellipse;whiteSpace=wrap;html=1;strokeWidth=2;fontStyle=1" vertex="1" parent="1">
          <mxGeometry x="530" y="310" width="130" height="70" as="geometry" />
        </mxCell>
        <mxCell id="IdwpKhhIMxXqMESn43Ej-26" value="" style="endArrow=open;html=1;rounded=0;dashed=1;endFill=0;strokeWidth=2;" edge="1" parent="1" target="IdwpKhhIMxXqMESn43Ej-4">
          <mxGeometry width="50" height="50" relative="1" as="geometry">
            <mxPoint x="520" y="206.67" as="sourcePoint" />
            <mxPoint x="680" y="160.00333333333336" as="targetPoint" />
          </mxGeometry>
        </mxCell>
        <mxCell id="IdwpKhhIMxXqMESn43Ej-27" value="&amp;lt;&amp;lt;extend&amp;gt;&amp;gt;" style="edgeLabel;html=1;align=center;verticalAlign=middle;resizable=0;points=[];fontStyle=1" vertex="1" connectable="0" parent="IdwpKhhIMxXqMESn43Ej-26">
          <mxGeometry x="-0.0673" relative="1" as="geometry">
            <mxPoint as="offset" />
          </mxGeometry>
        </mxCell>
        <mxCell id="IdwpKhhIMxXqMESn43Ej-28" value="Filtrar histórico de compras (data, destino)" style="ellipse;whiteSpace=wrap;html=1;strokeWidth=2;fontStyle=1" vertex="1" parent="1">
          <mxGeometry x="520" y="170" width="140" height="70" as="geometry" />
        </mxCell>
        <mxCell id="IdwpKhhIMxXqMESn43Ej-14" value="" style="endArrow=open;html=1;rounded=0;dashed=1;entryX=0.5;entryY=1;entryDx=0;entryDy=0;endFill=0;strokeWidth=2;" edge="1" parent="1" target="IdwpKhhIMxXqMESn43Ej-4">
          <mxGeometry relative="1" as="geometry">
            <mxPoint x="360" y="310.1400000000002" as="sourcePoint" />
            <mxPoint x="460" y="275.1399999999999" as="targetPoint" />
          </mxGeometry>
        </mxCell>
        <mxCell id="IdwpKhhIMxXqMESn43Ej-29" value="&amp;lt;&amp;lt;extend&amp;gt;&amp;gt;" style="edgeLabel;html=1;align=center;verticalAlign=middle;resizable=0;points=[];fontStyle=1" vertex="1" connectable="0" parent="IdwpKhhIMxXqMESn43Ej-14">
          <mxGeometry x="0.0073" relative="1" as="geometry">
            <mxPoint as="offset" />
          </mxGeometry>
        </mxCell>
        <mxCell id="t5PM8H9oiWj60Rk8-bWL-1" value="Acessar histórico de compras" style="shape=umlFrame;whiteSpace=wrap;html=1;pointerEvents=0;width=150;height=35;fontStyle=1;strokeWidth=2;" vertex="1" parent="1">
          <mxGeometry x="150" y="35" width="550" height="375" as="geometry" />
        </mxCell>
        <mxCell id="YzCTlsyXWgalV9CfEJNi-1" value="Usuário deve estar logado" style="shape=note;whiteSpace=wrap;html=1;backgroundOutline=1;darkOpacity=0.05;" vertex="1" parent="1">
          <mxGeometry x="170" y="90" width="90" height="90" as="geometry" />
        </mxCell>
      </root>
    </mxGraphModel>
  </diagram>
</mxfile>
